<svg width="261" height="86" viewBox="0 0 261 86" fill="none" xmlns="http://www.w3.org/2000/svg">
<g clip-path="url(#clip0_18_25)">
<path fill-rule="evenodd" clip-rule="evenodd" d="M2.62385 31.1128C1.89489 31.1128 1.2759 31.3681 0.763738 31.8788C0.251579 32.3926 -0.00292969 33.0136 -0.00292969 33.7449V52.3906C-0.00292969 53.1219 0.251579 53.7429 0.763738 54.2535C1.27275 54.7642 1.89174 55.0227 2.62385 55.0227C3.35595 55.0227 3.9718 54.7674 4.48082 54.2535C4.98984 53.7429 5.24749 53.1219 5.24749 52.3906V33.7449C5.24749 33.0136 4.99298 32.3926 4.48082 31.8788C3.96866 31.3681 3.34967 31.1128 2.62385 31.1128ZM50.6411 35.1698C49.821 34.0381 48.8281 33.0956 47.6624 32.3453C46.4967 31.5951 45.1676 31.1853 43.672 31.1128H20.7694C19.2015 31.1128 17.8001 31.4785 16.559 32.2098C15.321 32.9411 14.2621 33.8836 13.3886 35.0342C12.5151 36.1848 11.849 37.4646 11.3934 38.8737C10.9378 40.2827 10.7116 41.6792 10.7116 43.0693V52.3906C10.7116 53.1219 10.9661 53.7429 11.4782 54.2535C11.9872 54.7642 12.6062 55.0227 13.3383 55.0227C14.0704 55.0227 14.6863 54.7674 15.1953 54.2535C15.7043 53.7429 15.962 53.1219 15.962 52.3906V43.0693C15.962 42.4105 16.0437 41.6886 16.2071 40.9037C16.3704 40.1188 16.6815 39.3969 17.1371 38.7381C17.5927 38.0793 18.2117 37.5245 18.9941 37.0643C19.7765 36.6072 20.8071 36.3802 22.0828 36.3802H41.815C43.053 36.3802 44.0742 36.6103 44.8754 37.0643C45.6766 37.5213 46.305 38.0793 46.7606 38.7381C47.2162 39.3969 47.5273 40.1188 47.6907 40.9037C47.8541 41.6918 47.9358 42.4105 47.9358 43.0693V52.3906C47.9358 53.1219 48.1903 53.7429 48.7024 54.2535C49.2115 54.7642 49.8305 55.0227 50.5626 55.0227C51.2947 55.0227 51.9105 54.7674 52.4195 54.2535C52.9286 53.7429 53.1831 53.1219 53.1831 52.3906V43.0693C53.1831 41.717 52.9631 40.3458 52.5264 38.9556C52.0896 37.5655 51.4612 36.3046 50.6411 35.1729V35.1698ZM98.5767 35.1698C97.7566 34.0381 96.7637 33.0956 95.598 32.3453C94.4323 31.5951 93.1 31.1853 91.6076 31.1128H68.7049C67.137 31.1128 65.7357 31.4785 64.4945 32.2098C63.2566 32.9411 62.1977 33.8836 61.3242 35.0342C60.4507 36.1848 59.7846 37.4646 59.329 38.8737C58.8734 40.2827 58.6471 41.6792 58.6471 43.0693V52.3906C58.6471 53.1219 58.9016 53.7429 59.4107 54.2535C59.9197 54.7642 60.5387 55.0227 61.2676 55.0227C61.9966 55.0227 62.6156 54.7674 63.1277 54.2535C63.6368 53.7429 63.8944 53.1219 63.8944 52.3906V43.0693C63.8944 42.4105 63.9761 41.6886 64.1395 40.9037C64.3029 40.1188 64.6139 39.3969 65.0695 38.7381C65.5251 38.0793 66.1441 37.5245 66.9265 37.0643C67.7089 36.6072 68.7395 36.3802 70.0152 36.3802H89.7475C90.9854 36.3802 92.0066 36.6103 92.8078 37.0643C93.6091 37.5213 94.2375 38.0793 94.6931 38.7381C95.1487 39.3969 95.4597 40.1188 95.6231 40.9037C95.7865 41.6918 95.8682 42.4105 95.8682 43.0693V52.3906C95.8682 53.1219 96.1227 53.7429 96.6349 54.2535C97.1439 54.7642 97.7629 55.0227 98.4919 55.0227C99.2208 55.0227 99.8398 54.7674 100.349 54.2535C100.858 53.7429 101.112 53.1219 101.112 52.3906V43.0693C101.112 41.717 100.892 40.3458 100.456 38.9556C100.019 37.5655 99.3905 36.3046 98.5704 35.1729L98.5767 35.1698ZM158.402 31.1128C157.673 31.1128 157.054 31.3681 156.545 31.8788C156.036 32.3926 155.781 33.0136 155.781 33.7449V52.3906C155.781 53.1219 156.036 53.7429 156.545 54.2535C157.054 54.7642 157.673 55.0227 158.402 55.0227C159.131 55.0227 159.75 54.7674 160.259 54.2535C160.768 53.7429 161.026 53.1219 161.026 52.3906V33.7449C161.026 33.0136 160.771 32.3926 160.259 31.8788C159.75 31.3681 159.128 31.1128 158.402 31.1128ZM172.805 38.735C173.261 38.0761 173.88 37.5213 174.662 37.0611C175.445 36.604 176.475 36.3771 177.751 36.3771H208.414C209.143 36.3771 209.762 36.1217 210.274 35.6079C210.784 35.0973 211.041 34.4763 211.041 33.7449C211.041 33.0136 210.787 32.3926 210.274 31.8788C209.765 31.3681 209.143 31.1128 208.414 31.1128H176.547C174.98 31.1128 173.578 31.4785 172.34 32.2098C171.099 32.9411 170.043 33.8836 169.17 35.0342C168.296 36.1848 167.63 37.4646 167.175 38.8737C166.719 40.2827 166.49 41.6792 166.49 43.0693C166.49 44.4595 166.71 45.8118 167.146 47.2366C167.583 48.6614 168.211 49.9507 169.032 51.1013C169.852 52.2519 170.845 53.1944 172.01 53.9257C173.176 54.657 174.505 55.0227 176.001 55.0227H204.477C205.389 55.0227 206.243 54.8493 207.048 54.5026C207.849 54.1558 208.549 53.6798 209.153 53.0778C209.756 52.4757 210.218 51.7601 210.548 50.9405C210.875 50.1178 211.038 49.2509 211.038 48.3367V47.1294C211.038 46.2153 210.875 45.3484 210.548 44.5257C210.221 43.7029 209.756 42.9905 209.153 42.3853C208.553 41.7832 207.849 41.3072 207.048 40.9605C206.246 40.6137 205.389 40.4403 204.477 40.4403H183.542C182.813 40.4403 182.194 40.6957 181.685 41.2095C181.173 41.7202 180.918 42.3443 180.918 43.0756C180.918 43.8069 181.173 44.4279 181.685 44.9386C182.194 45.4493 182.813 45.7046 183.542 45.7046H204.257C204.766 45.7046 205.178 45.9064 205.489 46.3067C205.797 46.7102 205.954 47.183 205.954 47.7315C205.954 48.28 205.781 48.756 205.436 49.1563C205.09 49.5598 204.697 49.7584 204.261 49.7584H177.751C176.475 49.7584 175.445 49.5315 174.662 49.0744C173.877 48.6173 173.258 48.0594 172.805 47.4037C172.35 46.7449 172.039 46.023 171.875 45.2381C171.712 44.4532 171.63 43.7313 171.63 43.0725C171.63 42.4136 171.712 41.6918 171.875 40.9069C172.039 40.122 172.346 39.4001 172.805 38.7413V38.735ZM260.344 38.9556C259.907 37.5655 259.278 36.3046 258.458 35.1729C257.638 34.0412 256.645 33.0987 255.48 32.3485C254.314 31.5982 252.982 31.1884 251.489 31.1159H226.563C224.995 31.1159 223.594 31.4816 222.356 32.2129C221.115 32.9443 220.059 33.8868 219.185 35.0374C218.312 36.1879 217.646 37.4678 217.19 38.8768C216.735 40.2859 216.505 41.6823 216.505 43.0725C216.505 44.4626 216.725 45.796 217.162 47.1862C217.599 48.5763 218.227 49.8372 219.047 50.9689C219.867 52.1037 220.86 53.0431 222.026 53.7933C223.192 54.5435 224.521 54.9533 226.016 55.0258H250.942C252.51 55.0258 253.912 54.6602 255.15 53.9289C256.388 53.1975 257.447 52.255 258.32 51.1044C259.194 49.9539 259.86 48.674 260.315 47.265C260.771 45.8591 260.997 44.4595 260.997 43.0693C260.997 41.6792 260.777 40.3458 260.34 38.9556H260.344ZM255.671 45.2349C255.508 46.023 255.197 46.7417 254.741 47.4005C254.286 48.0593 253.657 48.6173 252.856 49.0712C252.055 49.5283 251.034 49.7553 249.796 49.7553H227.713C226.437 49.7553 225.407 49.5283 224.624 49.0712C223.839 48.6141 223.223 48.0562 222.767 47.4005C222.312 46.7417 222.001 46.0198 221.837 45.2349C221.674 44.45 221.592 43.7281 221.592 43.0693C221.592 42.4105 221.674 41.6886 221.837 40.9037C222.001 40.1188 222.309 39.3969 222.767 38.7381C223.223 38.0793 223.842 37.5245 224.624 37.0643C225.407 36.6072 226.437 36.3802 227.713 36.3802H249.796C251.034 36.3802 252.055 36.6103 252.856 37.0643C253.657 37.5213 254.286 38.0793 254.741 38.7381C255.197 39.3969 255.508 40.1188 255.671 40.9037C255.835 41.6918 255.916 42.4105 255.916 43.0693C255.916 43.7281 255.835 44.45 255.671 45.2349Z" fill="#036F32"/>
<path fill-rule="evenodd" clip-rule="evenodd" d="M119.327 33.9059C117.91 32.3707 117.19 30.2051 116.854 28.8181C117.492 27.636 117.856 26.2837 117.856 24.8463C117.856 20.2408 114.133 16.5054 109.542 16.5054C104.952 16.5054 101.229 20.2376 101.229 24.8463C101.229 29.4549 104.949 33.1871 109.542 33.1871C110.809 33.1871 112.006 32.9034 113.077 32.3959C114.4 32.8026 116.53 33.6568 117.979 35.2267C120.345 37.7926 121.093 42.0765 121.093 42.0765L125.809 37.4585C125.809 37.4585 121.693 36.4718 119.327 33.9059ZM107.129 22.088C105.728 23.6169 107.387 25.4074 104.644 25.13C102.586 24.9219 103.023 21.3472 104.421 19.8184C105.822 18.2896 109.772 17.5204 109.715 19.5946C109.646 22.0344 108.528 20.5592 107.129 22.0849V22.088Z" fill="#D0CDCD"/>
<path fill-rule="evenodd" clip-rule="evenodd" d="M129.152 36.311C123.581 36.311 119.063 40.844 119.063 46.4329C119.063 52.0219 123.578 56.5549 129.152 56.5549C134.726 56.5549 139.241 52.0251 139.241 46.4329C139.241 40.8408 134.726 36.311 129.152 36.311ZM126.177 43.2586C124.505 45.0806 126.481 47.2179 123.214 46.8869C120.76 46.6378 121.278 42.376 122.95 40.554C124.621 38.732 129.334 37.8115 129.262 40.2892C129.18 43.1956 127.845 41.4366 126.177 43.2618V43.2586Z" fill="#CD1A17"/>
<path fill-rule="evenodd" clip-rule="evenodd" d="M154.829 0C148.181 0 142.792 5.40613 142.792 12.0763C142.792 15.0205 143.842 17.7157 145.585 19.8088C144.951 21.8294 143.581 25.5302 141.281 28.6225C137.74 33.3825 132.216 36.8657 132.216 36.8657L137.501 40.8186C137.501 40.8186 139.251 34.5141 142.792 29.751C145.083 26.6713 148.209 24.3071 149.962 23.1187C151.452 23.7807 153.095 24.1495 154.829 24.1495C161.478 24.1495 166.867 18.7433 166.867 12.0732C166.867 5.40298 161.475 0 154.829 0ZM150.76 8.09816C148.797 10.2417 151.122 12.754 147.276 12.3663C144.388 12.0732 144.998 7.05791 146.962 4.91438C148.925 2.77084 154.471 1.68961 154.389 4.6023C154.292 8.02251 152.724 5.95462 150.76 8.09816Z" fill="#CD1A17"/>
<path fill-rule="evenodd" clip-rule="evenodd" d="M28.2349 78.277C28.6528 78.1636 28.945 77.9587 29.1116 77.656C29.2781 77.3566 29.3598 76.8302 29.3598 76.0831C29.3598 75.109 29.1901 74.466 28.8508 74.1476C28.5114 73.8324 27.8264 73.6747 26.7896 73.6747H22.3058V83.3396H26.4534C27.7133 83.3396 28.5523 83.1567 28.9702 82.7879C29.3881 82.4223 29.5986 81.7036 29.5986 80.6412C29.5986 79.8595 29.498 79.3015 29.2969 78.9705C29.0958 78.6396 28.7408 78.4094 28.2318 78.2802L28.2349 78.277ZM23.3553 74.6992H26.3654C27.2137 74.6992 27.7448 74.7843 27.949 74.9514C28.1564 75.1216 28.2601 75.5346 28.2601 76.1997C28.2601 76.8648 28.1626 77.3408 27.9678 77.5426C27.773 77.7475 27.3928 77.8483 26.8304 77.8483H23.3553V74.6992ZM28.1564 82.0314C27.9364 82.2268 27.506 82.3277 26.8681 82.3277H23.3553V78.835H26.202C27.2326 78.835 27.8704 78.939 28.1187 79.1439C28.3637 79.3488 28.4863 79.7996 28.4863 80.4962C28.4863 81.3221 28.3763 81.8359 28.1564 82.0314ZM41.2714 76.4141H40.8001C39.7852 76.4141 39.0782 76.6126 38.676 77.0098C38.2739 77.407 38.0696 78.11 38.0696 79.1124V80.7358C38.0696 81.7351 38.2739 82.4349 38.6792 82.8321C39.0845 83.2292 39.7978 83.4278 40.8158 83.4278H41.2871C42.2015 83.4278 42.8707 83.2639 43.2918 82.9329C43.7159 82.6051 43.9516 82.0692 44.005 81.3284H42.9556C42.9179 81.7666 42.7796 82.0724 42.5408 82.2457C42.302 82.4223 41.881 82.5074 41.2714 82.5074H40.8001C40.1183 82.5074 39.6658 82.3876 39.4427 82.148C39.2196 81.9084 39.1065 81.4356 39.1065 80.7295C39.1065 80.5782 39.1065 80.4584 39.1097 80.3764C39.1097 80.2913 39.1159 80.2157 39.1191 80.1463L44.0176 80.14V79.1092C44.0176 78.1037 43.8165 77.4039 43.408 77.0067C43.0027 76.6095 42.2894 76.4109 41.2714 76.4109V76.4141ZM42.9744 79.2574H39.1191V78.9926C39.1191 78.3527 39.2322 77.9177 39.4553 77.6876C39.6784 77.4574 40.1277 77.344 40.8001 77.344H41.2714C41.9501 77.344 42.4026 77.4574 42.6288 77.6876C42.8582 77.9177 42.9713 78.3527 42.9713 78.9926V79.2574H42.9744ZM56.3942 81.133C56.3942 81.6815 56.3094 82.0503 56.1397 82.2363C55.9701 82.4223 55.6401 82.5137 55.1531 82.5137C54.6661 82.5137 54.3268 82.4191 54.1539 82.2237C53.978 82.0314 53.8931 81.6657 53.8931 81.1298V77.366H57.2332V76.5023H53.8931V74.964H52.8845V76.5023H52.0487V77.366H52.8845V80.988C52.8845 81.9084 53.0354 82.5484 53.3401 82.8983C53.6449 83.2513 54.1854 83.4278 54.9677 83.4278C55.9669 83.4278 56.6268 83.2608 56.9441 82.9266C57.2614 82.5925 57.4186 81.9463 57.4186 80.9848V80.9249H56.3974V81.1267L56.3942 81.133ZM69.8203 81.133C69.8203 81.6815 69.7355 82.0503 69.5658 82.2363C69.3962 82.4223 69.0662 82.5137 68.5792 82.5137C68.0922 82.5137 67.756 82.4191 67.58 82.2237C67.4041 82.0314 67.3192 81.6657 67.3192 81.1298V77.366H70.6593V76.5023H67.3192V74.964H66.3106V76.5023H65.4748V77.366H66.3106V80.988C66.3106 81.9084 66.4615 82.5484 66.7662 82.8983C67.071 83.2513 67.6115 83.4278 68.3938 83.4278C69.393 83.4278 70.0529 83.2608 70.3702 82.9266C70.6876 82.5925 70.8447 81.9463 70.8447 80.9848V80.9249H69.8235V81.1267L69.8203 81.133ZM82.5018 76.4141H82.0305C81.0156 76.4141 80.3086 76.6126 79.9064 77.0098C79.5042 77.407 79.3031 78.11 79.3031 79.1124V80.7358C79.3031 81.7351 79.5042 82.4349 79.9096 82.8321C80.3149 83.2292 81.0281 83.4278 82.0462 83.4278H82.5175C83.4318 83.4278 84.1011 83.2639 84.5221 82.9329C84.9463 82.6051 85.182 82.0692 85.2354 81.3284H84.1859C84.1482 81.7666 84.01 82.0724 83.7712 82.2457C83.5355 82.4223 83.1113 82.5074 82.5018 82.5074H82.0305C81.3486 82.5074 80.8962 82.3876 80.6731 82.148C80.45 81.9084 80.3369 81.4356 80.3369 80.7295C80.3369 80.5782 80.3369 80.4584 80.34 80.3764C80.34 80.2913 80.3463 80.2157 80.3495 80.1463L85.2479 80.14V79.1092C85.2479 78.1037 85.0437 77.4039 84.6384 77.0067C84.2331 76.6095 83.5198 76.4109 82.5018 76.4109V76.4141ZM84.2048 79.2574H80.3495V78.9926C80.3495 78.3527 80.4626 77.9177 80.6857 77.6876C80.9087 77.4574 81.3581 77.344 82.0305 77.344H82.5018C83.1773 77.344 83.6329 77.4574 83.8592 77.6876C84.0885 77.9177 84.2016 78.3527 84.2016 78.9926V79.2574H84.2048ZM96.7888 76.4141C96.2892 76.4141 95.887 76.496 95.5854 76.6599C95.2838 76.8238 95.0607 77.0855 94.9193 77.4385V76.5055H93.9421V83.3427H94.957V79.3709C94.957 78.649 95.0827 78.1289 95.3309 77.8105C95.5822 77.4921 95.9876 77.3345 96.5469 77.3345C97.0245 77.3345 97.3512 77.4291 97.5241 77.6151C97.6969 77.8042 97.7817 78.1699 97.7817 78.7152V78.917H98.7966V78.8665C98.7966 77.9524 98.6458 77.3156 98.3473 76.9562C98.0456 76.5969 97.5272 76.4172 96.7857 76.4172L96.7888 76.4141ZM119.503 77.6939C119.717 77.4606 120.169 77.344 120.863 77.344H121.335C121.991 77.344 122.431 77.448 122.661 77.656C122.89 77.8641 123.016 78.2455 123.035 78.7972L124.078 78.7909C124.059 77.9461 123.839 77.3408 123.415 76.9689C122.991 76.6 122.296 76.4141 121.335 76.4141H120.863C119.849 76.4141 119.142 76.6126 118.739 77.0098C118.337 77.407 118.133 78.11 118.133 79.1124V80.7358C118.133 81.7351 118.337 82.4349 118.743 82.8321C119.148 83.2292 119.858 83.4278 120.876 83.4278H121.347C122.328 83.4278 123.025 83.2355 123.446 82.8541C123.867 82.4727 124.078 81.8328 124.078 80.9407V80.8115H123.035V80.9281C123.035 81.5302 122.918 81.9431 122.683 82.1732C122.447 82.4002 121.998 82.5137 121.335 82.5137H120.863C120.172 82.5137 119.72 82.397 119.503 82.1638C119.286 81.9305 119.179 81.3789 119.179 80.5088V79.3394C119.179 78.4725 119.286 77.924 119.5 77.6907L119.503 77.6939ZM135.98 76.4141C135.386 76.4141 134.905 76.496 134.544 76.6631C134.183 76.8302 133.919 77.0886 133.755 77.4385V73.6747H132.791V83.3396H133.793V79.3677C133.793 78.6585 133.96 78.1415 134.29 77.8168C134.619 77.4921 135.141 77.3314 135.851 77.3314C136.454 77.3314 136.863 77.4448 137.07 77.6687C137.281 77.8925 137.384 78.3653 137.384 79.0777V83.3427H138.393V78.8634C138.393 77.9555 138.214 77.3188 137.856 76.9562C137.498 76.5937 136.872 76.4141 135.98 76.4141ZM150.239 76.4141H149.767C148.753 76.4141 148.046 76.6126 147.64 77.0098C147.238 77.407 147.034 78.11 147.034 79.1124V80.7358C147.034 81.7351 147.238 82.4349 147.643 82.8321C148.049 83.2292 148.762 83.4278 149.777 83.4278H150.248C151.162 83.4278 151.832 83.2639 152.253 82.9329C152.674 82.6051 152.913 82.0692 152.963 81.3284H151.913C151.876 81.7666 151.738 82.0724 151.499 82.2457C151.263 82.4223 150.839 82.5074 150.229 82.5074H149.758C149.076 82.5074 148.624 82.3876 148.401 82.148C148.174 81.9084 148.064 81.4356 148.064 80.7295C148.064 80.5782 148.064 80.4584 148.068 80.3764C148.068 80.2913 148.074 80.2157 148.077 80.1463L152.975 80.14V79.1092C152.975 78.1037 152.774 77.4039 152.366 77.0067C151.961 76.6095 151.247 76.4109 150.232 76.4109L150.239 76.4141ZM151.942 79.2574H148.086V78.9926C148.086 78.3527 148.2 77.9177 148.423 77.6876C148.646 77.4574 149.095 77.344 149.771 77.344H150.242C150.921 77.344 151.373 77.4574 151.599 77.6876C151.829 77.9177 151.942 78.3527 151.942 78.9926V79.2574ZM169.003 76.4141C168.475 76.4141 168.051 76.5023 167.724 76.6788C167.398 76.8554 167.137 77.1454 166.939 77.5426C166.779 77.1454 166.537 76.8554 166.21 76.6788C165.883 76.5023 165.431 76.4141 164.853 76.4141C164.306 76.4141 163.863 76.496 163.53 76.6631C163.197 76.8302 162.958 77.0886 162.813 77.4385V76.5055H161.83V83.3427H162.838V79.3709C162.838 78.6711 162.989 78.1541 163.294 77.8263C163.599 77.4984 164.073 77.3314 164.721 77.3314C165.274 77.3314 165.647 77.4259 165.842 77.6182C166.037 77.8105 166.138 78.173 166.138 78.7152V83.3427H167.115V79.3709C167.115 78.6553 167.259 78.1383 167.545 77.8168C167.831 77.4953 168.29 77.3345 168.922 77.3345C169.49 77.3345 169.874 77.4543 170.068 77.6876C170.266 77.924 170.364 78.422 170.364 79.1849V83.3459H171.372V78.8665C171.372 77.9429 171.2 77.3061 170.854 76.9531C170.508 76.5969 169.889 76.4204 168.997 76.4204L169.003 76.4141ZM180.293 74.8159H181.295V73.6747H180.293V74.8159ZM180.293 83.3396H181.295V76.5023H180.293V83.3396ZM195.142 79.6073C195.004 79.5411 194.775 79.4907 194.451 79.456C194.127 79.4182 193.681 79.3898 193.112 79.3677C193.018 79.3646 192.883 79.3583 192.704 79.3551C192.01 79.3394 191.56 79.2763 191.359 79.166C191.259 79.1092 191.189 79.0273 191.152 78.9201C191.114 78.8129 191.095 78.6238 191.095 78.3558C191.095 77.9145 191.199 77.6245 191.406 77.4858C191.614 77.3471 192.091 77.2778 192.842 77.2778C193.593 77.2778 194.137 77.3345 194.398 77.448C194.658 77.5615 194.79 77.7727 194.79 78.0753V78.1415H195.799C195.799 77.5016 195.62 77.054 195.258 76.7986C194.897 76.5433 194.212 76.4172 193.197 76.4172C191.89 76.4172 191.045 76.5496 190.662 76.8207C190.278 77.0886 190.087 77.6025 190.087 78.359C190.087 78.8224 190.14 79.1754 190.253 79.4245C190.363 79.6703 190.548 79.8658 190.806 80.0076C190.979 80.1085 191.523 80.1684 192.437 80.1968C192.855 80.2094 193.188 80.222 193.433 80.2346C194.099 80.2693 194.514 80.3607 194.677 80.512C194.844 80.6601 194.925 80.9596 194.925 81.4041C194.925 81.8485 194.825 82.1732 194.621 82.334C194.42 82.4948 193.879 82.5736 193.002 82.5736C192.223 82.5736 191.702 82.4948 191.444 82.3372C191.186 82.1795 191.054 81.8895 191.054 81.4703V81.3158H190.033V81.4987C190.033 82.2363 190.228 82.7438 190.618 83.0212C191.007 83.2986 191.808 83.4404 193.015 83.4404C193.606 83.4404 194.068 83.4184 194.401 83.3774C194.734 83.3364 194.973 83.2671 195.12 83.1725C195.444 82.9739 195.667 82.7438 195.793 82.4853C195.918 82.2268 195.981 81.8454 195.981 81.3442C195.981 80.843 195.918 80.4742 195.789 80.2157C195.664 79.9572 195.447 79.7555 195.145 79.6199L195.142 79.6073ZM208.568 81.133C208.568 81.6815 208.483 82.0503 208.314 82.2363C208.144 82.4223 207.814 82.5137 207.327 82.5137C206.84 82.5137 206.504 82.4191 206.328 82.2237C206.155 82.0314 206.067 81.6657 206.067 81.1298V77.366H209.407V76.5023H206.067V74.964H205.059V76.5023H204.223V77.366H205.059V80.988C205.059 81.9084 205.209 82.5484 205.514 82.8983C205.819 83.2513 206.363 83.4278 207.142 83.4278C208.141 83.4278 208.801 83.2608 209.118 82.9266C209.436 82.5925 209.593 81.9463 209.593 80.9848V80.9249H208.571V81.1267L208.568 81.133ZM221.159 76.4141C220.659 76.4141 220.257 76.496 219.955 76.6599C219.654 76.8238 219.43 77.0855 219.289 77.4385V76.5055H218.312V83.3427H219.327V79.3709C219.327 78.649 219.452 78.1289 219.701 77.8105C219.952 77.4921 220.357 77.3345 220.917 77.3345C221.397 77.3345 221.721 77.4291 221.894 77.6151C222.067 77.8042 222.152 78.1699 222.152 78.7152V78.917H223.166V78.8665C223.166 77.9524 223.016 77.3156 222.717 76.9562C222.419 76.5969 221.897 76.4172 221.155 76.4172L221.159 76.4141ZM233.472 82.3844L231.446 76.5023H230.437L232.813 83.3396H233.117L232.866 84.0457C232.715 84.4523 232.555 84.7266 232.382 84.8684C232.209 85.0103 231.971 85.0796 231.663 85.0796C231.581 85.0796 231.518 85.0796 231.471 85.0765C231.427 85.0765 231.389 85.0702 231.358 85.067L231.352 85.9559C231.455 85.9717 231.549 85.9843 231.641 85.9906C231.729 85.9969 231.81 86.0001 231.883 86.0001C232.376 86.0001 232.765 85.8582 233.058 85.5714C233.35 85.2845 233.636 84.7392 233.915 83.9353L236.483 76.5023H235.487L233.476 82.3844H233.472ZM0.0913086 65.2078V66.0053H260.975V65.2078H0.0913086Z" fill="#13110C"/>
</g>
<defs>
<clipPath id="clip0_18_25">
<rect width="261" height="86" fill="white"/>
</clipPath>
</defs>
</svg>
